<svg id="a383e625-7a5e-4b4a-a394-192de82d7682" data-name="Icons" xmlns="http://www.w3.org/2000/svg" width="18" height="18" viewBox="0 0 18 18"><title>ic_cleared_kpi</title><path d="M9,2a7,7,0,1,0,7,7A7,7,0,0,0,9,2ZM6.39,10.77a1,1,0,0,0,.84.38,1.16,1.16,0,0,0,.7-.24.76.76,0,0,0,.28-.6h1a1.31,1.31,0,0,1-.28.84,1.57,1.57,0,0,1-.74.6,2.56,2.56,0,0,1-1,.24,2.2,2.2,0,0,1-1.64-.66A2.62,2.62,0,0,1,5,9.47v-.1a2.41,2.41,0,0,1,.6-1.77A2,2,0,0,1,7.23,7a2.07,2.07,0,0,1,1.44.51,1.7,1.7,0,0,1,.56,1.35h-1a1,1,0,0,0-1-1,1,1,0,0,0-.84.38,2,2,0,0,0-.28,1.16v.19A2.19,2.19,0,0,0,6.39,10.77ZM12.08,12H10.82V5h1.26Z" fill="#06bfa9"/></svg>