<svg id="afc097ec-2bd9-4bd3-9e82-9c373e30bc6b" data-name="Icons" xmlns="http://www.w3.org/2000/svg" width="18" height="18" viewBox="0 0 18 18"><title>ic_minor_kpi</title><path d="M9,2a7,7,0,1,0,7,7A7,7,0,0,0,9,2ZM5.5,6.29H6.67l0,.66a1,1,0,0,1,.19-.24,1.42,1.42,0,0,1,.28-.23,1,1,0,0,1,.37-.19,1.68,1.68,0,0,1,.47,0A1.34,1.34,0,0,1,9.37,7a2.79,2.79,0,0,1,.52-.51,1.64,1.64,0,0,1,.88-.23,1.79,1.79,0,0,1,1.36.51,2.11,2.11,0,0,1,.42,1.45l-.05,3.22H11.24l0-3.18a1,1,0,0,0-.19-.7.57.57,0,0,0-.47-.23,1,1,0,0,0-.51.14.72.72,0,0,0-.28.37c-.05.14-.09.33-.14.52a2.81,2.81,0,0,0,0,.65l0,2.43H8.35l0-3.18a1,1,0,0,0-.18-.7.65.65,0,0,0-.47-.23,1,1,0,0,0-.51.14A.56.56,0,0,0,7,7.83a4.25,4.25,0,0,0-.14.52,2.81,2.81,0,0,0,0,.65l0,2.43H5.45" fill="#ffbf02"/></svg>