<svg xmlns="http://www.w3.org/2000/svg" width="24" height="24" viewBox="0 0 24 24"><title>ic_router_circle</title><g id="Icons">
<path d="M11.9787,2.0123c-5.5228,0-10,4.4772-10,10s4.4772,10,10,10s10-4.4772,10-10S17.5015,2.0123,11.9787,2.0123z
	 M11.9787,3.5123l3.3346,3.3347h-2.4193v3.2038h-1.8307V6.847H8.6441L11.9787,3.5123z M3.4787,12.9277V11.097h3.2039V8.6777
	l3.3346,3.3346L6.6826,15.347v-2.4193H3.4787z M11.9787,20.5123l-3.3347-3.3346h2.4193v-3.2039h1.8307v3.2039h2.4193
	L11.9787,20.5123z M17.2749,12.9277v2.4193l-3.3346-3.3347l3.3346-3.3346v2.4193h3.2039v1.8307H17.2749z" fill="#000001"/>
</g>
</svg>
