<svg id="Icons" xmlns="http://www.w3.org/2000/svg" width="24" height="24" viewBox="0 0 24 24"><title>ic_threshold_policy</title><path d="M12,2A10,10,0,1,0,22,12,10,10,0,0,0,12,2Zm0,18a8,8,0,1,1,8-8A8,8,0,0,1,12,20ZM7.39,12.27c0,.67.16,1.73.41,1.73H5.85c-.18,0-.28-1.08-.28-1.73A6.33,6.33,0,0,1,11.93,5.9a6.21,6.21,0,0,1,1.56.2L11.86,7.76A4.49,4.49,0,0,0,7.39,12.27ZM18.17,12v2h-2Zm-4.56.61a1.89,1.89,0,0,1,.14.72,1.82,1.82,0,1,1-1.82-1.86l.2,0L15.52,8a.9.9,0,0,1,1.29,0,1,1,0,0,1,0,1.31Z" fill="#000001"/></svg>