<svg id="f41bd746-f1b2-4463-a218-3da76bb22162" data-name="Icons" xmlns="http://www.w3.org/2000/svg" width="18" height="18" viewBox="0 0 18 18"><title>ic_critical_kpi</title><path d="M9,2a7,7,0,1,0,7,7A7,7,0,0,0,9,2ZM8,10.73a1.22,1.22,0,0,0,1.08.56,1.28,1.28,0,0,0,.93-.33,1.5,1.5,0,0,0,.42-.79h1.4a2.15,2.15,0,0,1-.37,1.16,2.11,2.11,0,0,1-1,.84,3.36,3.36,0,0,1-1.36.33,2.94,2.94,0,0,1-2.24-.93,3.59,3.59,0,0,1-.84-2.52V8.91a3.63,3.63,0,0,1,.84-2.48A2.78,2.78,0,0,1,9.16,5.5a2.77,2.77,0,0,1,2,.7A2.53,2.53,0,0,1,11.92,8h-1.4A1.3,1.3,0,0,0,9.21,6.71a1.34,1.34,0,0,0-1.12.52,2.61,2.61,0,0,0-.42,1.63v.23A3.08,3.08,0,0,0,8,10.73Z" fill="#d9070a"/></svg>