<svg id="a9abbb7f-6053-455d-a3a7-b65242be53e2" data-name="Icons" xmlns="http://www.w3.org/2000/svg" width="24" height="24" viewBox="0 0 24 24"><title>ic_device</title><path d="M18,14a1,1,0,0,1,1,1v1a1,1,0,0,1-2,0V15A1,1,0,0,1,18,14Zm-8,0a1,1,0,0,1,1,1v1a1,1,0,0,1-2,0V15A1,1,0,0,1,10,14ZM6,14a1,1,0,0,1,1,1v1a1,1,0,0,1-2,0V15A1,1,0,0,1,6,14Zm14-2H4v6H20ZM18,3a1,1,0,0,1,1,1v6h2a1,1,0,0,1,1,1v8a1,1,0,0,1-1,1H3a1,1,0,0,1-1-1V11a1,1,0,0,1,1-1H5V6A1,1,0,0,1,7,6v4H17V4A1,1,0,0,1,18,3Z" fill="#000001" fill-rule="evenodd"/></svg>